<?xml version="1.0" encoding="utf-8"?>
<!-- Generator: Adobe Illustrator 22.1.0, SVG Export Plug-In . SVG Version: 6.00 Build 0)  -->
<!DOCTYPE svg PUBLIC "-//W3C//DTD SVG 1.1//EN" "http://www.w3.org/Graphics/SVG/1.1/DTD/svg11.dtd" [
	<!ENTITY st0 "fill:#636F80;">
	<!ENTITY st1 "fill:#73B0DE;">
	<!ENTITY st2 "fill:#8D4390;">
	<!ENTITY st3 "fill:#F7931E;">
	<!ENTITY st4 "fill:#BAC0CF;">
	<!ENTITY st5 "fill:#333333;">
	<!ENTITY st6 "fill:#9A9FAF;">
	<!ENTITY st7 "fill:#FFFFFF;">
	<!ENTITY st8 "fill:#CFD3DD;">
	<!ENTITY st9 "fill:none;stroke:#636F80;stroke-width:2;stroke-miterlimit:10;">
	<!ENTITY st10 "fill:#488CC7;">
	<!ENTITY st11 "fill:#4EAC58;">
	<!ENTITY st12 "fill:#DA3E5B;">
	<!ENTITY st13 "fill:#E8953F;">
	<!ENTITY st14 "fill:#ECEDF2;">
	<!ENTITY st15 "fill:#525761;">
	<!ENTITY st16 "enable-background:new    ;">
	<!ENTITY st17 "fill:#F8F9FB;">
	<!ENTITY st18 "fill:#ECEFF1;">
	<!ENTITY st19 "fill:#EDEDED;">
	<!ENTITY st20 "fill:#A6D0A9;">
	<!ENTITY st21 "fill:#DDE0E5;">
	<!ENTITY st22 "fill:#E89DAB;">
	<!ENTITY st23 "fill:#F4CA9E;">
	<!ENTITY st24 "fill:#DBDBDB;">
	<!ENTITY st25 "fill:#EFB579;">
	<!ENTITY st26 "fill:#64CADB;">
	<!ENTITY st27 "fill:#AF7BB1;">
	<!ENTITY st28 "fill:#E5788C;">
	<!ENTITY st29 "fill:#FFBF00;">
	<!ENTITY st30 "fill:#22B3CC;">
	<!ENTITY st31 "fill:#BDE8F0;">
	<!ENTITY st32 "opacity:0.8;">
]>
<svg version="1.1" xmlns="http://www.w3.org/2000/svg" xmlns:xlink="http://www.w3.org/1999/xlink" x="0px" y="0px" width="800px"
	 height="400px" viewBox="0 0 800 400" style="enable-background:new 0 0 800 400;" xml:space="preserve">
<g id="Слой_4">
	<g>
		<path style="&st1;" d="M482.626709,231.9584961l-0.9975586-0.0722656l0.215332-2.9921875l0.9975586,0.0717773
			L482.626709,231.9584961z M482.9855957,226.9707031l-0.9975586-0.0717773l0.215332-2.9916992l0.9975586,0.0717773
			L482.9855957,226.9707031z M483.3444824,221.984375l-0.9975586-0.0717773l0.215332-2.9926758l0.9975586,0.0722656
			L483.3444824,221.984375z M483.7033691,216.996582l-0.9975586-0.0717773l0.215332-2.9916992l0.9975586,0.0717773
			L483.7033691,216.996582z M484.0622559,212.0097656l-0.9975586-0.0712891l0.215332-2.9926758l0.9975586,0.0712891
			L484.0622559,212.0097656z M484.4208984,207.0224609l-0.9975586-0.0717773l0.215332-2.9916992l0.9975586,0.0712891
			L484.4208984,207.0224609z M484.7797852,202.0356445l-0.9975586-0.0717773l0.215332-2.9926758l0.9975586,0.0722656
			L484.7797852,202.0356445z M485.1386719,197.0488281l-0.9975586-0.0722656l0.1762695-2.4487305l0.9975586,0.0722656
			L485.1386719,197.0488281z"/>
	</g>
	<g>
		<g>
			<path style="&st8;" d="M260.9226074,334.8056641h-63.1164551l8.5205078-92.6777344l51.8149414-98.2519531l-15.0314941-92.9360352
				l74.8706055,3.3173828l16.9404297,84.7021484l-0.076416,0.152832l-50.4658203,101.3989258L260.9226074,334.8056641z
				 M198.9018555,333.8056641h61.2390137l23.2941895-93.6420898l0.0241699-0.0488281l50.4140625-101.2949219l-16.7197266-83.5986328
				l-72.8601074-3.2275391l14.8886719,92.0532227l-0.0778809,0.1479492l-51.8464355,98.3115234L198.9018555,333.8056641z"/>
		</g>
		<g>
			<polygon style="&st8;" points="390.9580078,153.0014648 334.3544922,139.3935547 258.6953125,144.4604492 
				258.628418,143.4624023 334.4399414,138.3857422 334.5141602,138.4033203 390.0371094,151.7514648 395.9853516,60.3481445 
				317.534668,55.2382812 317.5996094,54.2402344 397.0483398,59.4155273 			"/>
		</g>
		<g>
			
				<rect x="206.7557678" y="240.8491974" transform="matrix(0.9996526 -0.026358 0.026358 0.9996526 -6.2762547 6.5504785)" style="&st8;" width="77.1644897" height="1.0003475"/>
		</g>
		<g>
			
				<rect x="260.3882751" y="330.2515564" transform="matrix(0.9967513 -0.0805406 0.0805406 0.9967513 -25.6498051 25.5972786)" style="&st8;" width="88.1775742" height="1.0003201"/>
		</g>
		<g>
			
				<rect x="345.1173706" y="245.2672424" transform="matrix(0.9976584 -0.0683938 0.0683938 0.9976584 -18.7705173 24.3084354)" style="&st8;" width="0.9998981" height="82.0265427"/>
		</g>
		<g>
			
				<rect x="312.8594971" y="213.0999908" transform="matrix(0.0908952 -0.9958605 0.9958605 0.0908952 43.2062378 532.6795044)" style="&st8;" width="1.0002255" height="59.1501274"/>
		</g>
		<g>
			
				<rect x="314.1442566" y="198.6620331" transform="matrix(0.4540355 -0.8909836 0.8909836 0.4540355 22.7303963 435.4189453)" style="&st8;" width="105.0213013" height="1.0001456"/>
		</g>
		<g>
			
				<rect x="399.536377" y="279.9082031" transform="matrix(0.1167387 -0.9931627 0.9931627 0.1167387 23.638422 690.515686)" style="&st8;" width="0.9999968" height="104.1196136"/>
		</g>
		<g>
			
				<rect x="526.1929932" y="268.1530762" transform="matrix(0.0697952 -0.9975613 0.9975613 0.0697952 147.4804382 844.737915)" style="&st8;" width="1.0002428" height="150.2722015"/>
		</g>
		<g>
			
				<rect x="594.682251" y="256.7124634" transform="matrix(0.9901379 -0.1400963 0.1400963 0.9901379 -36.5584526 86.3695602)" style="&st8;" width="1.0000329" height="92.2757568"/>
		</g>
		<g>
			
				<rect x="448.90271" y="250.7138062" transform="matrix(0.9985682 -0.0534938 0.0534938 0.9985682 -15.1057014 24.461813)" style="&st8;" width="0.9999787" height="87.3941727"/>
		</g>
		<g>
			
				<rect x="394.4386597" y="196.179718" transform="matrix(0.0462667 -0.9989291 0.9989291 0.0462667 128.5700989 631.3869629)" style="&st8;" width="1.0000998" height="104.3646927"/>
		</g>
		<g>
			
				<rect x="517.3918457" y="183.0732117" transform="matrix(0.0450721 -0.9989837 0.9989837 0.0450721 240.8355255 759.8903809)" style="&st8;" width="1.0000329" height="141.7974243"/>
		</g>
		<g>
			
				<rect x="403.2904968" y="202.4790192" transform="matrix(0.0878938 -0.9961299 0.9961299 0.0878938 209.4151764 634.6646118)" style="&st8;" width="95.9643936" height="0.9999638"/>
		</g>
		<g>
			
				<rect x="568.5809326" y="159.6424255" transform="matrix(0.9220678 -0.3870285 0.3870285 0.9220678 -37.0741119 236.6460724)" style="&st8;" width="0.9997024" height="101.4793167"/>
		</g>
		<g>
			
				<rect x="501.9616089" y="112.2196808" transform="matrix(0.0892 -0.9960137 0.9960137 0.0892 298.8882751 645.6303711)" style="&st8;" width="1.0000936" height="94.3389511"/>
		</g>
		<g>
			
				<rect x="421.290863" y="119.7593613" transform="matrix(0.0501214 -0.9987431 0.9987431 0.0501214 247.3522339 567.0586548)" style="&st8;" width="1.0002886" height="67.4632111"/>
		</g>
		<g>
			
				<rect x="428.4734802" y="116.6155319" transform="matrix(0.3301111 -0.9439421 0.9439421 0.3301111 203.4963989 520.9782715)" style="&st8;" width="80.6612091" height="0.9999"/>
		</g>
		<g>
			
				<rect x="439.6405945" y="24.8015919" transform="matrix(0.2145742 -0.9767077 0.9767077 0.2145742 277.8501282 484.4486694)" style="&st8;" width="0.9998113" height="89.3279724"/>
		</g>
		<g>
			
				<rect x="526.5082397" y="37.982975" transform="matrix(0.0972899 -0.9952561 0.9952561 0.0972899 393.0525818 599.5026855)" style="&st8;" width="0.9998499" height="90.1883469"/>
		</g>
		<g>
			
				<rect x="520.9797363" y="125.0305557" transform="matrix(0.2832237 -0.9590539 0.9590539 0.2832237 281.4814453 627.6859741)" style="&st8;" width="79.3720551" height="0.9999275"/>
		</g>
	</g>
	<g>
		<g>
			
				<rect x="342.8082581" y="245.3722382" transform="matrix(0.994979 -0.1000838 0.1000838 0.994979 -22.8828239 35.619133)" style="&st1;" width="1.5001839" height="1.0001389"/>
		</g>
		<g>
			<path style="&st1;" d="M346.3449707,246.0942383l-0.1000977-0.9951172l2.9853516-0.300293l0.1000977,0.9951172
				L346.3449707,246.0942383z M351.3205566,245.5932617l-0.1000977-0.9951172l2.9853516-0.300293l0.1000977,0.9951172
				L351.3205566,245.5932617z M356.2961426,245.0922852l-0.1000977-0.9951172l2.9853516-0.300293l0.1000977,0.9951172
				L356.2961426,245.0922852z M361.2717285,244.5917969l-0.1000977-0.9951172l2.9853516-0.3007812l0.1000977,0.9951172
				L361.2717285,244.5917969z M366.2473145,244.0908203l-0.1000977-0.9951172l2.9853516-0.3007812l0.1000977,0.9951172
				L366.2473145,244.0908203z M371.2229004,243.5898438l-0.1000977-0.9951172l2.9853516-0.3007812l0.1000977,0.9951172
				L371.2229004,243.5898438z M376.1984863,243.0888672l-0.1000977-0.9951172l2.9853516-0.300293l0.1000977,0.9951172
				L376.1984863,243.0888672z M381.1740723,242.5878906l-0.1000977-0.9951172l2.9853516-0.300293l0.1000977,0.9951172
				L381.1740723,242.5878906z M386.1496582,242.0869141l-0.1000977-0.9951172l2.9853516-0.300293l0.1000977,0.9951172
				L386.1496582,242.0869141z M391.1252441,241.5864258l-0.1000977-0.9951172l2.9853516-0.3007812l0.1000977,0.9951172
				L391.1252441,241.5864258z M396.1008301,241.0854492l-0.1000977-0.9951172l2.9853516-0.3007812l0.1000977,0.9951172
				L396.1008301,241.0854492z M401.076416,240.5844727l-0.1000977-0.9951172l2.9853516-0.3007812l0.1000977,0.9951172
				L401.076416,240.5844727z M406.0517578,240.0834961l-0.1000977-0.9951172l2.9853516-0.300293l0.1000977,0.9951172
				L406.0517578,240.0834961z M411.0273438,239.5825195l-0.1000977-0.9951172l2.9853516-0.300293l0.1000977,0.9951172
				L411.0273438,239.5825195z M416.0029297,239.081543l-0.1000977-0.9951172l2.9853516-0.300293l0.1000977,0.9951172
				L416.0029297,239.081543z M420.9785156,238.5810547l-0.1000977-0.9951172l2.9853516-0.3007812l0.1000977,0.9951172
				L420.9785156,238.5810547z M425.9541016,238.0800781l-0.1000977-0.9951172l2.9853516-0.3007812l0.1000977,0.9951172
				L425.9541016,238.0800781z M430.9296875,237.5791016l-0.1000977-0.9951172l2.9853516-0.300293l0.1000977,0.9951172
				L430.9296875,237.5791016z M435.9052734,237.078125l-0.1000977-0.9951172l2.9853516-0.300293l0.1000977,0.9951172
				L435.9052734,237.078125z M440.8808594,236.5771484l-0.1000977-0.9951172l2.9853516-0.300293l0.1000977,0.9951172
				L440.8808594,236.5771484z M445.8564453,236.0766602l-0.1000977-0.9951172l2.9853516-0.3007812l0.1000977,0.9951172
				L445.8564453,236.0766602z M450.8320312,235.5756836l-0.1000977-0.9951172l2.9853516-0.3007812l0.1000977,0.9951172
				L450.8320312,235.5756836z M455.8076172,235.074707l-0.1000977-0.9951172l2.9853516-0.3007812l0.1000977,0.9951172
				L455.8076172,235.074707z M460.7832031,234.5737305l-0.1000977-0.9951172l2.9853516-0.300293l0.1000977,0.9951172
				L460.7832031,234.5737305z M465.7587891,234.0727539l-0.1000977-0.9951172l2.9853516-0.300293l0.1000977,0.9951172
				L465.7587891,234.0727539z M470.734375,233.5717773l-0.1000977-0.9951172l2.9853516-0.300293l0.1000977,0.9951172
				L470.734375,233.5717773z M475.7099609,233.0712891l-0.1000977-0.9951172l2.9853516-0.3007812l0.1000977,0.9951172
				L475.7099609,233.0712891z"/>
		</g>
		<g>
			
				<rect x="480.6314697" y="231.4974823" transform="matrix(0.994979 -0.1000838 0.1000838 0.994979 -20.8021774 49.3433342)" style="&st1;" width="1.5002328" height="1.0001389"/>
		</g>
	</g>
	<g>
		<path style="&st1;" d="M344.2006836,244.9863281l-0.7871094-0.6171875l1.8500977-2.3613281l0.7871094,0.6171875
			L344.2006836,244.9863281z M347.2841797,241.050293l-0.7871094-0.6171875l1.8500977-2.3613281l0.7871094,0.6171875
			L347.2841797,241.050293z M350.3676758,237.1142578l-0.7871094-0.6171875l1.8500977-2.3613281l0.7871094,0.6171875
			L350.3676758,237.1142578z M353.4511719,233.1782227l-0.7871094-0.6171875l1.8503418-2.3613281l0.7871094,0.6171875
			L353.4511719,233.1782227z M356.5349121,229.2421875l-0.7871094-0.6162109l1.8500977-2.3618164l0.7871094,0.6162109
			L356.5349121,229.2421875z M359.6184082,225.3061523l-0.7871094-0.6162109l1.8500977-2.3618164l0.7871094,0.6162109
			L359.6184082,225.3061523z M362.7019043,221.3701172l-0.7871094-0.6162109l1.8500977-2.3618164l0.7871094,0.6162109
			L362.7019043,221.3701172z M365.7854004,217.434082l-0.7871094-0.6162109l1.8500977-2.3618164l0.7871094,0.6162109
			L365.7854004,217.434082z M368.8688965,213.4985352l-0.7871094-0.6171875l1.8500977-2.3613281l0.7871094,0.6171875
			L368.8688965,213.4985352z M371.9523926,209.5625l-0.7871094-0.6171875l1.8500977-2.3613281l0.7871094,0.6171875
			L371.9523926,209.5625z M375.0358887,205.6264648l-0.7871094-0.6171875l1.8500977-2.3613281l0.7871094,0.6171875
			L375.0358887,205.6264648z M378.1193848,201.6904297l-0.7871094-0.6171875l1.8500977-2.3613281l0.7871094,0.6171875
			L378.1193848,201.6904297z M381.2028809,197.7543945l-0.7871094-0.6162109l1.8500977-2.3618164l0.7871094,0.6162109
			L381.2028809,197.7543945z M384.286377,193.8183594l-0.7871094-0.6162109l1.8500977-2.3618164l0.7871094,0.6162109
			L384.286377,193.8183594z M387.369873,189.8823242l-0.7871094-0.6162109l1.8500977-2.3618164l0.7871094,0.6162109
			L387.369873,189.8823242z M390.4533691,185.9467773l-0.7871094-0.6171875l1.8503418-2.3618164l0.7871094,0.6171875
			L390.4533691,185.9467773z M393.5371094,182.0107422L392.75,181.3935547l1.8500977-2.3613281l0.7871094,0.6171875
			L393.5371094,182.0107422z M396.6206055,178.074707l-0.7871094-0.6171875l1.8500977-2.3613281l0.7871094,0.6171875
			L396.6206055,178.074707z M399.7041016,174.1386719l-0.7871094-0.6171875l1.8500977-2.3613281l0.7871094,0.6171875
			L399.7041016,174.1386719z M402.7875977,170.2026367l-0.7871094-0.6171875l1.8500977-2.3613281l0.7871094,0.6171875
			L402.7875977,170.2026367z M405.8710938,166.2666016l-0.7871094-0.6162109l1.8500977-2.3618164l0.7871094,0.6162109
			L405.8710938,166.2666016z"/>
	</g>
	<g>
		<path style="&st1;" d="M406.697998,162.378418l-0.3110352-2.9838867l0.9946289-0.1035156l0.3110352,2.9838867
			L406.697998,162.378418z M406.1796875,157.4052734l-0.3110352-2.9833984l0.9946289-0.1035156l0.3110352,2.9833984
			L406.1796875,157.4052734z M405.6611328,152.4326172l-0.3110352-2.9838867l0.9946289-0.1035156l0.3110352,2.9838867
			L405.6611328,152.4326172z M405.1428223,147.4594727l-0.3110352-2.9838867l0.9946289-0.1035156l0.3110352,2.9838867
			L405.1428223,147.4594727z M404.6245117,142.4863281l-0.3110352-2.9838867l0.9946289-0.1035156l0.3110352,2.9838867
			L404.6245117,142.4863281z M404.1062012,137.5131836l-0.3110352-2.9838867l0.9946289-0.1035156l0.3110352,2.9838867
			L404.1062012,137.5131836z M403.5876465,132.5400391l-0.3110352-2.9838867l0.9946289-0.1035156l0.3110352,2.9838867
			L403.5876465,132.5400391z M403.0693359,127.5673828l-0.3110352-2.9838867l0.9946289-0.1035156l0.3110352,2.9838867
			L403.0693359,127.5673828z M402.5510254,122.5942383l-0.3110352-2.9838867l0.9946289-0.1035156l0.3110352,2.9838867
			L402.5510254,122.5942383z M402.0327148,117.6210938l-0.3110352-2.9838867l0.9946289-0.1035156l0.3110352,2.9838867
			L402.0327148,117.6210938z M401.5141602,112.6479492l-0.3110352-2.9838867l0.9946289-0.1035156l0.3110352,2.9838867
			L401.5141602,112.6479492z M400.9958496,107.6748047l-0.3110352-2.9838867l0.9946289-0.1035156l0.3110352,2.9838867
			L400.9958496,107.6748047z M400.4775391,102.7016602l-0.3110352-2.9833984l0.9946289-0.1035156l0.3110352,2.9833984
			L400.4775391,102.7016602z M399.9592285,97.7290039l-0.3110352-2.9838867l0.9946289-0.1035156l0.3110352,2.9838867
			L399.9592285,97.7290039z M399.4406738,92.7558594l-0.3110352-2.9838867l0.9946289-0.1035156l0.3110352,2.9838867
			L399.4406738,92.7558594z M398.9223633,87.7827148l-0.3110352-2.9838867l0.9946289-0.1035156l0.3110352,2.9838867
			L398.9223633,87.7827148z M398.4040527,82.8095703l-0.3110352-2.9838867l0.9946289-0.1035156l0.3110352,2.9838867
			L398.4040527,82.8095703z M397.8857422,77.8364258l-0.3110352-2.9838867l0.9946289-0.1035156l0.3110352,2.9838867
			L397.8857422,77.8364258z M397.3671875,72.8637695l-0.3110352-2.9838867l0.9946289-0.1035156l0.3110352,2.9838867
			L397.3671875,72.8637695z M396.848877,67.890625l-0.3110352-2.9838867l0.9946289-0.1035156l0.3110352,2.9838867
			L396.848877,67.890625z M396.3305664,62.9174805l-0.3110352-2.9838867l0.9946289-0.1035156l0.3110352,2.9838867
			L396.3305664,62.9174805z"/>
	</g>
	<g>
		<path style="&st1;" d="M488.4711914,101.0117188l-0.6699219-0.2954102l0.4033203-0.9150391l0.6699219,0.2954102
			L488.4711914,101.0117188z M485.9714355,99.9086914l-2.7446289-1.2114258l0.4038086-0.9150391l2.7446289,1.2114258
			L485.9714355,99.9086914z M481.3969727,97.8896484l-2.7443848-1.2114258l0.4038086-0.9150391l2.7443848,1.2114258
			L481.3969727,97.8896484z M476.8227539,95.8710938l-2.7446289-1.2114258l0.4038086-0.9150391l2.7446289,1.2114258
			L476.8227539,95.8710938z M472.2485352,93.8520508l-2.7446289-1.2114258l0.4038086-0.9150391l2.7446289,1.2114258
			L472.2485352,93.8520508z M467.6740723,91.8330078l-2.7446289-1.2109375l0.4038086-0.9150391l2.7446289,1.2109375
			L467.6740723,91.8330078z M463.0998535,89.8144531l-2.7446289-1.2114258l0.4038086-0.9150391l2.7446289,1.2114258
			L463.0998535,89.8144531z M458.5256348,87.7954102l-2.7446289-1.2109375l0.4038086-0.9150391l2.7446289,1.2109375
			L458.5256348,87.7954102z M453.9511719,85.7768555l-2.7446289-1.2114258l0.4038086-0.9150391l2.7446289,1.2114258
			L453.9511719,85.7768555z M449.3769531,83.7578125l-2.7446289-1.2114258l0.4038086-0.9150391l2.7446289,1.2114258
			L449.3769531,83.7578125z M444.8024902,81.7392578l-2.7443848-1.2114258l0.4038086-0.9150391l2.7443848,1.2114258
			L444.8024902,81.7392578z M440.2282715,79.7202148l-2.7446289-1.2114258l0.4038086-0.9150391l2.7446289,1.2114258
			L440.2282715,79.7202148z M435.6540527,77.7011719l-2.7446289-1.2109375l0.4038086-0.9150391l2.7446289,1.2109375
			L435.6540527,77.7011719z M431.0795898,75.6826172l-2.7443848-1.2114258l0.4038086-0.9150391l2.7443848,1.2114258
			L431.0795898,75.6826172z M426.5053711,73.6635742l-2.7446289-1.2114258l0.4038086-0.9150391l2.7446289,1.2114258
			L426.5053711,73.6635742z M421.9311523,71.6450195l-2.7446289-1.2114258l0.4038086-0.9150391l2.7446289,1.2114258
			L421.9311523,71.6450195z M417.3566895,69.6259766l-2.7446289-1.2114258l0.4038086-0.9150391l2.7446289,1.2114258
			L417.3566895,69.6259766z M412.7824707,67.6069336l-2.7446289-1.2109375l0.4038086-0.9150391l2.7446289,1.2109375
			L412.7824707,67.6069336z M408.208252,65.5883789l-2.7446289-1.2114258l0.4038086-0.9150391l2.7446289,1.2114258
			L408.208252,65.5883789z M403.6337891,63.5693359l-2.7446289-1.2109375l0.4038086-0.9150391l2.7446289,1.2109375
			L403.6337891,63.5693359z M399.0595703,61.5507812l-2.7446289-1.2114258l0.4038086-0.9150391l2.7446289,1.2114258
			L399.0595703,61.5507812z"/>
	</g>
	<g>
		<path style="&st1;" d="M485.3156738,194.5844727l-0.9990234-0.0410156l0.1230469-2.9975586l0.9990234,0.0410156
			L485.3156738,194.5844727z M485.5205078,189.5888672l-0.9990234-0.0410156l0.1230469-2.9975586l0.9990234,0.0410156
			L485.5205078,189.5888672z M485.7255859,184.5927734l-0.9990234-0.0410156l0.1230469-2.9975586l0.9990234,0.0410156
			L485.7255859,184.5927734z M485.9304199,179.597168l-0.9990234-0.0410156l0.1230469-2.9975586l0.9990234,0.0410156
			L485.9304199,179.597168z M486.135498,174.6010742l-0.9990234-0.0410156l0.1230469-2.9970703l0.9990234,0.0410156
			L486.135498,174.6010742z M486.340332,169.6054688l-0.9990234-0.0410156l0.1230469-2.9975586l0.9990234,0.0410156
			L486.340332,169.6054688z M486.5454102,164.6098633l-0.9990234-0.0410156l0.1230469-2.9975586l0.9990234,0.0410156
			L486.5454102,164.6098633z M486.7502441,159.6137695l-0.9990234-0.0410156l0.1230469-2.9975586l0.9990234,0.0410156
			L486.7502441,159.6137695z M486.9553223,154.6181641l-0.9990234-0.0410156l0.1228027-2.9975586l0.9990234,0.0410156
			L486.9553223,154.6181641z M487.1601562,149.6220703l-0.9990234-0.0410156l0.1230469-2.9970703l0.9990234,0.0410156
			L487.1601562,149.6220703z M487.3652344,144.6264648l-0.9990234-0.0410156l0.1228027-2.9975586l0.9990234,0.0410156
			L487.3652344,144.6264648z M487.5700684,139.6308594l-0.9990234-0.0410156l0.1230469-2.9975586l0.9990234,0.0410156
			L487.5700684,139.6308594z M487.7751465,134.6347656l-0.9990234-0.0410156l0.1228027-2.9975586l0.9990234,0.0410156
			L487.7751465,134.6347656z M487.9799805,129.6391602l-0.9990234-0.0410156l0.1230469-2.9975586l0.9990234,0.0410156
			L487.9799805,129.6391602z M488.1850586,124.6435547l-0.9990234-0.0410156l0.1228027-2.9975586l0.9990234,0.0410156
			L488.1850586,124.6435547z M488.3898926,119.6474609l-0.9990234-0.0410156l0.1230469-2.9975586l0.9990234,0.0410156
			L488.3898926,119.6474609z M488.5949707,114.6518555l-0.9990234-0.0410156l0.1228027-2.9975586l0.9990234,0.0410156
			L488.5949707,114.6518555z M488.7998047,109.6557617l-0.9990234-0.0410156l0.1230469-2.9970703l0.9990234,0.0410156
			L488.7998047,109.6557617z M489.0048828,104.6601562l-0.9990234-0.0410156l0.1228027-2.9975586l0.9990234,0.0410156
			L489.0048828,104.6601562z"/>
	</g>
	<g>
		<path style="&st1;" d="M563.3933105,113.203125l-2.9611816-0.480957l0.1601562-0.9873047l2.9611816,0.480957
			L563.3933105,113.203125z M558.4577637,112.4013672l-2.9611816-0.4814453l0.1606445-0.9873047l2.9611816,0.4814453
			L558.4577637,112.4013672z M553.5227051,111.5991211l-2.9611816-0.480957l0.1601562-0.9873047l2.9611816,0.480957
			L553.5227051,111.5991211z M548.5874023,110.7973633l-2.9611816-0.4814453l0.1606445-0.9873047l2.9611816,0.4814453
			L548.5874023,110.7973633z M543.6523438,109.9951172l-2.9611816-0.480957l0.1601562-0.9873047l2.9611816,0.480957
			L543.6523438,109.9951172z M538.7167969,109.1933594l-2.9611816-0.4814453l0.1606445-0.9873047l2.9611816,0.4814453
			L538.7167969,109.1933594z M533.7817383,108.3911133l-2.9611816-0.480957l0.1601562-0.9873047l2.9611816,0.480957
			L533.7817383,108.3911133z M528.8461914,107.5893555l-2.9611816-0.4814453l0.1606445-0.9873047l2.9611816,0.4814453
			L528.8461914,107.5893555z M523.9111328,106.7871094l-2.9611816-0.480957l0.1601562-0.9873047l2.9611816,0.480957
			L523.9111328,106.7871094z M518.9758301,105.9853516l-2.9611816-0.4814453l0.1606445-0.9873047l2.9611816,0.4814453
			L518.9758301,105.9853516z M514.0407715,105.1831055l-2.9611816-0.480957l0.1601562-0.9873047l2.9611816,0.480957
			L514.0407715,105.1831055z M509.1052246,104.3813477l-2.9611816-0.4814453l0.1606445-0.9873047l2.9611816,0.4814453
			L509.1052246,104.3813477z M504.170166,103.5791016l-2.9611816-0.480957l0.1601562-0.9873047l2.9611816,0.480957
			L504.170166,103.5791016z M499.2346191,102.7773438l-2.9611816-0.4814453l0.1606445-0.9873047l2.9611816,0.4814453
			L499.2346191,102.7773438z M494.2995605,101.9750977l-2.9611816-0.480957l0.1601562-0.9873047l2.9611816,0.480957
			L494.2995605,101.9750977z M489.3642578,101.1733398l-0.7717285-0.1254883l0.1606445-0.9873047l0.7717285,0.1254883
			L489.3642578,101.1733398z"/>
	</g>
	<g>
		<path style="&st1;" d="M516.2302246,203.2124023l-0.8842773-0.4667969l1.4013672-2.652832l0.8842773,0.4667969
			L516.2302246,203.2124023z M518.5656738,198.7915039l-0.8842773-0.4667969l1.4013672-2.652832l0.8842773,0.4667969
			L518.5656738,198.7915039z M520.901123,194.3701172l-0.8842773-0.4667969l1.4013672-2.6523438l0.8842773,0.4667969
			L520.901123,194.3701172z M523.2365723,189.9492188l-0.8842773-0.4667969l1.401123-2.652832l0.8842773,0.4667969
			L523.2365723,189.9492188z M525.5720215,185.5283203l-0.8842773-0.4667969l1.401123-2.652832l0.8842773,0.4667969
			L525.5720215,185.5283203z M527.9074707,181.1069336l-0.8842773-0.4667969l1.401123-2.6523438l0.8842773,0.4667969
			L527.9074707,181.1069336z M530.2429199,176.6860352l-0.8842773-0.4667969l1.401123-2.6523438l0.8842773,0.4667969
			L530.2429199,176.6860352z M532.5783691,172.2651367l-0.8842773-0.4667969l1.401123-2.652832l0.8842773,0.4667969
			L532.5783691,172.2651367z M534.9138184,167.84375l-0.8842773-0.4667969l1.401123-2.6523438l0.8842773,0.4667969
			L534.9138184,167.84375z M537.2492676,163.4228516l-0.8842773-0.4667969l1.401123-2.6523438l0.8842773,0.4667969
			L537.2492676,163.4228516z M539.5847168,159.0019531l-0.8842773-0.4667969l1.401123-2.652832l0.8842773,0.4667969
			L539.5847168,159.0019531z M541.920166,154.5810547l-0.8842773-0.4667969l1.401123-2.652832l0.8842773,0.4667969
			L541.920166,154.5810547z M544.2556152,150.159668l-0.8842773-0.4667969l1.401123-2.6523438l0.8842773,0.4667969
			L544.2556152,150.159668z M546.5910645,145.7387695l-0.8842773-0.4667969l1.401123-2.652832l0.8842773,0.4667969
			L546.5910645,145.7387695z M548.9265137,141.3178711l-0.8842773-0.4667969l1.401123-2.652832l0.8842773,0.4667969
			L548.9265137,141.3178711z M551.2619629,136.8964844l-0.8842773-0.4667969l1.401123-2.6523438l0.8842773,0.4667969
			L551.2619629,136.8964844z M553.5974121,132.4755859l-0.8842773-0.4667969l1.401123-2.652832l0.8842773,0.4667969
			L553.5974121,132.4755859z M555.9326172,128.0546875l-0.8842773-0.4667969l1.4013672-2.652832l0.8842773,0.4667969
			L555.9326172,128.0546875z M558.2680664,123.6333008l-0.8842773-0.4667969l1.4013672-2.6523438l0.8842773,0.4667969
			L558.2680664,123.6333008z M560.6035156,119.2124023l-0.8842773-0.4667969l1.4013672-2.652832l0.8842773,0.4667969
			L560.6035156,119.2124023z M562.9389648,114.7915039l-0.8842773-0.4667969l0.9765625-1.8486328l0.8842773,0.4667969
			L562.9389648,114.7915039z"/>
	</g>
	<g>
		<path style="&st1;" d="M549.0900879,237.8818359l-2.0932617-2.1489258l0.7163086-0.6982422l2.0932617,2.1489258
			L549.0900879,237.8818359z M545.6010742,234.300293l-2.0932617-2.1489258l0.7163086-0.6982422l2.0932617,2.1489258
			L545.6010742,234.300293z M542.1123047,230.71875l-2.0935059-2.1489258l0.7163086-0.6982422l2.0935059,2.1489258
			L542.1123047,230.71875z M538.623291,227.137207l-2.0932617-2.1489258l0.7163086-0.6982422l2.0932617,2.1489258
			L538.623291,227.137207z M535.1345215,223.5556641l-2.0935059-2.1489258l0.7163086-0.6982422l2.0935059,2.1489258
			L535.1345215,223.5556641z M531.6455078,219.9741211l-2.0932617-2.1489258l0.7163086-0.6982422l2.0932617,2.1489258
			L531.6455078,219.9741211z M528.1564941,216.3925781l-2.0932617-2.1489258l0.7163086-0.6982422l2.0932617,2.1489258
			L528.1564941,216.3925781z M524.6677246,212.8110352l-2.0935059-2.1489258l0.7163086-0.6982422l2.0935059,2.1489258
			L524.6677246,212.8110352z M521.1787109,209.2294922l-2.0932617-2.1489258l0.7163086-0.6982422l2.0932617,2.1489258
			L521.1787109,209.2294922z M517.6896973,205.6479492l-2.0932617-2.1489258l0.7163086-0.6982422l2.0932617,2.1489258
			L517.6896973,205.6479492z"/>
	</g>
	<g>
		<path style="&st1;" d="M484.215332,194.8623047l-2.7858887-1.1132812l0.3710938-0.9287109l2.7858887,1.1132812
			L484.215332,194.8623047z M479.5722656,193.0068359l-2.7856445-1.1132812l0.3710938-0.9287109l2.7856445,1.1132812
			L479.5722656,193.0068359z M474.9294434,191.1513672l-2.7858887-1.1132812l0.3710938-0.9287109l2.7858887,1.1132812
			L474.9294434,191.1513672z M470.286377,189.2958984l-2.7858887-1.1132812l0.3710938-0.9287109l2.7858887,1.1132812
			L470.286377,189.2958984z M465.6433105,187.4404297l-2.7856445-1.1132812l0.3710938-0.9287109l2.7856445,1.1132812
			L465.6433105,187.4404297z M461.0004883,185.5849609l-2.7858887-1.1132812l0.3710938-0.9287109l2.7858887,1.1132812
			L461.0004883,185.5849609z M456.3574219,183.7294922l-2.7856445-1.1132812l0.3710938-0.9287109l2.7856445,1.1132812
			L456.3574219,183.7294922z M451.7145996,181.8740234l-2.7858887-1.1132812l0.3710938-0.9287109l2.7858887,1.1132812
			L451.7145996,181.8740234z M447.0715332,180.0185547l-2.7856445-1.1132812l0.3710938-0.9287109l2.7856445,1.1132812
			L447.0715332,180.0185547z M442.4287109,178.1625977l-2.7858887-1.1132812l0.3710938-0.9287109l2.7858887,1.1132812
			L442.4287109,178.1625977z M437.7856445,176.3071289l-2.7858887-1.1132812l0.3710938-0.9287109l2.7858887,1.1132812
			L437.7856445,176.3071289z M433.1425781,174.4516602l-2.7856445-1.1132812l0.3710938-0.9287109l2.7856445,1.1132812
			L433.1425781,174.4516602z M428.4997559,172.5961914l-2.7858887-1.1132812l0.3710938-0.9287109l2.7858887,1.1132812
			L428.4997559,172.5961914z M423.8566895,170.7407227l-2.7856445-1.1132812l0.3710938-0.9287109l2.7856445,1.1132812
			L423.8566895,170.7407227z M419.2138672,168.8852539l-2.7858887-1.1132812l0.3710938-0.9287109l2.7858887,1.1132812
			L419.2138672,168.8852539z M414.5708008,167.0297852l-2.7856445-1.1132812l0.3710938-0.9287109l2.7856445,1.1132812
			L414.5708008,167.0297852z M409.9279785,165.1743164l-2.7858887-1.1132812l0.3710938-0.9287109l2.7858887,1.1132812
			L409.9279785,165.1743164z"/>
	</g>
	<g>
		<path style="&st1;" d="M515.6569824,203.4614258l-2.0214844-0.5493164l0.262207-0.9648438l2.0214844,0.5493164
			L515.6569824,203.4614258z M511.7055664,202.3876953l-2.8950195-0.7866211l0.262207-0.9648438l2.8950195,0.7866211
			L511.7055664,202.3876953z M506.8803711,201.0766602l-2.8950195-0.7866211l0.262207-0.9648438l2.8950195,0.7866211
			L506.8803711,201.0766602z M502.0554199,199.7661133l-2.8950195-0.7866211l0.262207-0.9648438l2.8950195,0.7866211
			L502.0554199,199.7661133z M497.2302246,198.4550781l-2.8950195-0.7866211l0.262207-0.9648438l2.8950195,0.7866211
			L497.2302246,198.4550781z M492.4052734,197.144043l-2.8950195-0.7866211l0.262207-0.9648438l2.8950195,0.7866211
			L492.4052734,197.144043z M487.5800781,195.8330078l-2.8950195-0.7866211l0.262207-0.9648438l2.8950195,0.7866211
			L487.5800781,195.8330078z"/>
	</g>
	<g>
		<path style="&st1;" d="M549.7231445,239.3461914l-2.984375-0.3056641l0.1020508-0.9951172l2.984375,0.3056641
			L549.7231445,239.3461914z M544.7492676,238.8369141l-2.984375-0.3056641l0.1020508-0.9951172l2.984375,0.3056641
			L544.7492676,238.8369141z M539.7751465,238.3276367l-2.984375-0.3056641l0.1020508-0.9951172l2.984375,0.3056641
			L539.7751465,238.3276367z M534.8012695,237.8183594l-2.984375-0.3056641l0.1020508-0.9951172l2.984375,0.3056641
			L534.8012695,237.8183594z M529.8271484,237.309082l-2.984375-0.3056641l0.1020508-0.9951172l2.984375,0.3056641
			L529.8271484,237.309082z M524.8532715,236.7998047l-2.984375-0.3056641l0.1020508-0.9951172l2.984375,0.3056641
			L524.8532715,236.7998047z M519.8791504,236.2905273l-2.984375-0.3056641l0.1020508-0.9951172l2.984375,0.3056641
			L519.8791504,236.2905273z M514.9052734,235.78125l-2.984375-0.3056641l0.1020508-0.9951172l2.984375,0.3056641
			L514.9052734,235.78125z M509.9311523,235.2719727l-2.984375-0.3056641l0.1020508-0.9951172l2.984375,0.3056641
			L509.9311523,235.2719727z M504.9572754,234.7626953l-2.984375-0.3056641l0.1020508-0.9951172l2.984375,0.3056641
			L504.9572754,234.7626953z M499.9833984,234.253418l-2.9846191-0.3056641l0.1020508-0.9951172l2.9846191,0.3056641
			L499.9833984,234.253418z M495.0092773,233.7441406l-2.984375-0.3056641l0.1020508-0.9951172l2.984375,0.3056641
			L495.0092773,233.7441406z M490.0354004,233.2348633l-2.9846191-0.3056641l0.1020508-0.9951172l2.9846191,0.3056641
			L490.0354004,233.2348633z M485.0612793,232.7255859l-2.984375-0.3056641l0.1020508-0.9951172l2.984375,0.3056641
			L485.0612793,232.7255859z"/>
	</g>
	<g>
		<path style="&st1;" d="M348.9248047,327.6962891l-0.0703125-0.9970703l2.9926758-0.2104492l0.0703125,0.9970703
			L348.9248047,327.6962891z M353.9125977,327.3457031l-0.0703125-0.9970703l2.9924316-0.2104492l0.0703125,0.9970703
			L353.9125977,327.3457031z M358.9001465,326.9951172l-0.0703125-0.9970703l2.9926758-0.2104492l0.0703125,0.9970703
			L358.9001465,326.9951172z M363.8879395,326.644043l-0.0703125-0.9970703l2.9924316-0.2104492l0.0703125,0.9970703
			L363.8879395,326.644043z M368.8754883,326.293457l-0.0703125-0.9970703l2.9926758-0.2104492l0.0703125,0.9970703
			L368.8754883,326.293457z M373.8632812,325.9428711l-0.0703125-0.9970703l2.9926758-0.2104492l0.0703125,0.9970703
			L373.8632812,325.9428711z M378.8508301,325.5922852l-0.0703125-0.9970703l2.9926758-0.2104492l0.0703125,0.9970703
			L378.8508301,325.5922852z M383.838623,325.2412109l-0.0703125-0.9970703l2.9926758-0.2104492l0.0703125,0.9970703
			L383.838623,325.2412109z M388.826416,324.890625l-0.0703125-0.9970703l2.9924316-0.2104492l0.0703125,0.9970703
			L388.826416,324.890625z M393.8139648,324.5400391l-0.0703125-0.9970703l2.9926758-0.2104492l0.0703125,0.9970703
			L393.8139648,324.5400391z M398.8017578,324.1894531l-0.0703125-0.9970703l2.9924316-0.2104492l0.0703125,0.9970703
			L398.8017578,324.1894531z M403.7893066,323.8388672l-0.0703125-0.9970703l2.9926758-0.2104492l0.0703125,0.9970703
			L403.7893066,323.8388672z M408.7770996,323.487793l-0.0703125-0.9970703l2.9926758-0.2104492l0.0703125,0.9970703
			L408.7770996,323.487793z M413.7646484,323.137207l-0.0703125-0.9970703l2.9926758-0.2104492l0.0703125,0.9970703
			L413.7646484,323.137207z M418.7524414,322.7866211l-0.0703125-0.9970703l2.9926758-0.2104492l0.0703125,0.9970703
			L418.7524414,322.7866211z M423.7402344,322.4360352l-0.0703125-0.9970703l2.9924316-0.2104492l0.0703125,0.9970703
			L423.7402344,322.4360352z M428.7277832,322.0849609l-0.0703125-0.9970703l2.9926758-0.2104492l0.0703125,0.9970703
			L428.7277832,322.0849609z M433.7155762,321.734375l-0.0703125-0.9970703l2.9924316-0.2104492l0.0703125,0.9970703
			L433.7155762,321.734375z M438.703125,321.3837891l-0.0703125-0.9970703l2.9926758-0.2104492l0.0703125,0.9970703
			L438.703125,321.3837891z M443.690918,321.0332031l-0.0703125-0.9970703l2.9926758-0.2104492l0.0703125,0.9970703
			L443.690918,321.0332031z M448.6782227,320.6821289l-0.0698242-0.9970703l2.9926758-0.2099609l0.0698242,0.9970703
			L448.6782227,320.6821289z M453.6662598,320.331543l-0.0703125-0.9970703l2.9926758-0.2104492l0.0703125,0.9970703
			L453.6662598,320.331543z M458.6538086,319.980957l-0.0703125-0.9970703l2.9926758-0.2104492l0.0703125,0.9970703
			L458.6538086,319.980957z M463.6416016,319.6303711l-0.0703125-0.9970703l2.9926758-0.2104492l0.0703125,0.9970703
			L463.6416016,319.6303711z"/>
	</g>
	<g>
		<path style="&st1;" d="M469.0644531,318.8598633l-0.9882812-0.1542969l0.4489746-2.8774414l0.9882812,0.1542969
			L469.0644531,318.8598633z M469.8217773,314.0063477l-0.9880371-0.1542969l0.4628906-2.9638672l0.987793,0.1542969
			L469.8217773,314.0063477z M470.5930176,309.0664062l-0.9880371-0.1542969l0.4626465-2.9643555l0.9880371,0.1542969
			L470.5930176,309.0664062z M471.3640137,304.1259766l-0.9880371-0.1542969l0.4626465-2.9638672l0.9880371,0.1542969
			L471.3640137,304.1259766z M472.1352539,299.1860352l-0.9880371-0.1542969l0.4626465-2.9643555l0.9880371,0.1542969
			L472.1352539,299.1860352z M472.90625,294.2456055l-0.9880371-0.1542969l0.4624023-2.9638672l0.9880371,0.1542969
			L472.90625,294.2456055z M473.6772461,289.3056641l-0.987793-0.1542969l0.4626465-2.9643555l0.9880371,0.1542969
			L473.6772461,289.3056641z M474.4484863,284.3652344l-0.9880371-0.1542969l0.4626465-2.9638672l0.9880371,0.1542969
			L474.4484863,284.3652344z M475.2194824,279.425293l-0.987793-0.1542969l0.4626465-2.9643555l0.987793,0.1542969
			L475.2194824,279.425293z M475.9907227,274.4848633l-0.9880371-0.1542969l0.4626465-2.9638672l0.9880371,0.1542969
			L475.9907227,274.4848633z M476.7617188,269.5449219l-0.9882812-0.1542969l0.4626465-2.9643555l0.9880371,0.1542969
			L476.7617188,269.5449219z M477.532959,264.6044922l-0.9880371-0.1542969l0.4626465-2.9638672l0.9880371,0.1542969
			L477.532959,264.6044922z M478.3039551,259.6645508l-0.9882812-0.1542969l0.4626465-2.9643555l0.9882812,0.1542969
			L478.3039551,259.6645508z M479.074707,254.7241211l-0.9880371-0.1542969l0.4628906-2.9638672l0.987793,0.1542969
			L479.074707,254.7241211z M479.8461914,249.7841797l-0.9882812-0.1542969l0.4626465-2.9643555l0.9882812,0.1542969
			L479.8461914,249.7841797z M480.6169434,244.84375l-0.9880371-0.1542969l0.4626465-2.9638672l0.9880371,0.1542969
			L480.6169434,244.84375z M481.3884277,239.9038086l-0.9882812-0.1542969l0.4626465-2.9643555l0.9882812,0.1542969
			L481.3884277,239.9038086z M482.1591797,234.9633789l-0.9880371-0.1542969l0.4626465-2.9638672l0.9880371,0.1542969
			L482.1591797,234.9633789z"/>
	</g>
	<g>
		<path style="&st1;" d="M584.7497559,334.8012695l-2.9736328-0.3969727l0.1323242-0.9912109l2.9736328,0.3969727
			L584.7497559,334.8012695z M579.7937012,334.1396484l-2.9736328-0.3974609l0.1323242-0.9912109l2.9736328,0.3974609
			L579.7937012,334.1396484z M574.8376465,333.4775391l-2.9736328-0.3969727l0.1323242-0.9912109l2.9736328,0.3969727
			L574.8376465,333.4775391z M569.8818359,332.815918l-2.9736328-0.3969727l0.1323242-0.9912109l2.9736328,0.3969727
			L569.8818359,332.815918z M564.9257812,332.1538086l-2.9736328-0.3969727l0.1323242-0.9912109l2.9736328,0.3969727
			L564.9257812,332.1538086z M559.9697266,331.4921875l-2.9736328-0.3969727l0.1323242-0.9912109l2.9736328,0.3969727
			L559.9697266,331.4921875z M555.0136719,330.8305664l-2.9736328-0.3969727l0.1323242-0.9912109l2.9736328,0.3969727
			L555.0136719,330.8305664z M550.0576172,330.168457l-2.9736328-0.3969727l0.1323242-0.9912109l2.9736328,0.3969727
			L550.0576172,330.168457z M545.1018066,329.5068359l-2.9736328-0.3969727l0.1323242-0.9912109l2.9736328,0.3969727
			L545.1018066,329.5068359z M540.145752,328.8452148l-2.9736328-0.3974609l0.1323242-0.9912109l2.9736328,0.3974609
			L540.145752,328.8452148z M535.1896973,328.1831055l-2.9736328-0.3969727l0.1323242-0.9912109l2.9736328,0.3969727
			L535.1896973,328.1831055z M530.2336426,327.5214844l-2.9736328-0.3969727l0.1323242-0.9912109l2.9736328,0.3969727
			L530.2336426,327.5214844z M525.2775879,326.859375l-2.9736328-0.3969727l0.1323242-0.9912109l2.9736328,0.3969727
			L525.2775879,326.859375z M520.3215332,326.1977539l-2.9733887-0.3969727l0.1323242-0.9912109l2.9733887,0.3969727
			L520.3215332,326.1977539z M515.3657227,325.5361328l-2.9736328-0.3969727l0.1323242-0.9912109l2.9736328,0.3969727
			L515.3657227,325.5361328z M510.409668,324.8740234l-2.9736328-0.3969727l0.1323242-0.9912109l2.9736328,0.3969727
			L510.409668,324.8740234z M505.4536133,324.2124023l-2.9736328-0.3969727l0.1323242-0.9912109l2.9736328,0.3969727
			L505.4536133,324.2124023z M500.4975586,323.5507812l-2.9736328-0.3974609l0.1323242-0.9912109l2.9736328,0.3974609
			L500.4975586,323.5507812z M495.5415039,322.8886719l-2.9733887-0.3969727l0.1323242-0.9912109l2.9733887,0.3969727
			L495.5415039,322.8886719z M490.5856934,322.2270508l-2.9736328-0.3969727l0.1323242-0.9912109l2.9736328,0.3969727
			L490.5856934,322.2270508z M485.6296387,321.5649414l-2.9736328-0.3969727l0.1323242-0.9912109l2.9736328,0.3969727
			L485.6296387,321.5649414z M480.673584,320.9033203l-2.9736328-0.3969727l0.1323242-0.9912109l2.9736328,0.3969727
			L480.673584,320.9033203z M475.7175293,320.2416992l-2.9736328-0.3969727l0.1323242-0.9912109l2.9736328,0.3969727
			L475.7175293,320.2416992z M470.7614746,319.5795898l-2.2573242-0.3012695l0.1323242-0.9912109l2.2573242,0.3012695
			L470.7614746,319.5795898z"/>
	</g>
	<g>
		<path style="&st1;" d="M584.3347168,334.4458008l-1.0297852-2.8178711l0.9394531-0.3427734l1.0297852,2.8178711
			L584.3347168,334.4458008z M582.6184082,329.7495117l-1.0297852-2.8178711l0.9394531-0.3427734l1.0297852,2.8178711
			L582.6184082,329.7495117z M580.9020996,325.0537109l-1.0297852-2.8173828l0.9394531-0.34375l1.0297852,2.8173828
			L580.9020996,325.0537109z M579.185791,320.3574219l-1.0297852-2.8173828l0.9394531-0.34375l1.0297852,2.8173828
			L579.185791,320.3574219z M577.4694824,315.6611328l-1.0297852-2.8178711l0.9394531-0.3427734l1.0297852,2.8178711
			L577.4694824,315.6611328z M575.7531738,310.9648438l-1.0297852-2.8178711l0.9394531-0.3427734l1.0297852,2.8178711
			L575.7531738,310.9648438z M574.0368652,306.2685547l-1.0297852-2.8178711l0.9394531-0.3427734l1.0297852,2.8178711
			L574.0368652,306.2685547z M572.3205566,301.5722656l-1.0297852-2.8178711l0.9394531-0.3427734l1.0297852,2.8178711
			L572.3205566,301.5722656z M570.604248,296.8764648l-1.0297852-2.8173828l0.9394531-0.34375l1.0297852,2.8173828
			L570.604248,296.8764648z M568.8879395,292.1801758l-1.0297852-2.8178711l0.9394531-0.3427734l1.0297852,2.8178711
			L568.8879395,292.1801758z M567.1716309,287.4838867l-1.0297852-2.8178711l0.9394531-0.3427734l1.0297852,2.8178711
			L567.1716309,287.4838867z M565.4550781,282.7875977l-1.0297852-2.8178711l0.9394531-0.3427734l1.0297852,2.8178711
			L565.4550781,282.7875977z M563.7387695,278.0913086l-1.0297852-2.8178711l0.9394531-0.3427734l1.0297852,2.8178711
			L563.7387695,278.0913086z M562.0224609,273.3955078l-1.0297852-2.8173828l0.9394531-0.34375l1.0297852,2.8173828
			L562.0224609,273.3955078z M560.3061523,268.6992188l-1.0297852-2.8178711l0.9394531-0.3427734l1.0297852,2.8178711
			L560.3061523,268.6992188z M558.5898438,264.0029297l-1.0297852-2.8178711l0.9394531-0.3427734l1.0297852,2.8178711
			L558.5898438,264.0029297z M556.8735352,259.3066406l-1.0297852-2.8178711l0.9394531-0.3427734l1.0297852,2.8178711
			L556.8735352,259.3066406z M555.1572266,254.6103516l-1.0297852-2.8178711l0.9394531-0.3427734l1.0297852,2.8178711
			L555.1572266,254.6103516z M553.440918,249.9145508l-1.0297852-2.8173828l0.9394531-0.34375l1.0297852,2.8173828
			L553.440918,249.9145508z M551.7246094,245.2182617l-1.0297852-2.8173828l0.9394531-0.34375l1.0297852,2.8173828
			L551.7246094,245.2182617z M550.0083008,240.5219727l-1.0297852-2.8178711l0.9394531-0.3427734l1.0297852,2.8178711
			L550.0083008,240.5219727z"/>
	</g>
	<circle style="&st1;" cx="484.81604" cy="194.5639191" r="8.41504"/>
	<circle style="&st1;" cx="407.3275452" cy="163.5964661" r="8.41504"/>
	<circle style="&st1;" cx="482.1278992" cy="231.9225464" r="8.41504"/>
	<circle style="&st1;" cx="584.8158569" cy="334.305542" r="8.41504"/>
	<circle style="&st1;" cx="468.570343" cy="318.7829285" r="8.41504"/>
	<circle style="&st1;" cx="488.6729431" cy="100.5544205" r="8.41504"/>
	<circle style="&st1;" cx="563.4733276" cy="112.7094803" r="8.41504"/>
	<circle style="&st1;" cx="515.7880859" cy="202.9789581" r="8.41504"/>
	<circle style="&st1;" cx="549.4482422" cy="237.5325775" r="8.41504"/>
	<circle style="&st0;" cx="243.701767" cy="51.4666862" r="8.41504"/>
	<circle style="&st0;" cx="258.6618347" cy="143.9613647" r="8.41504"/>
	<circle style="&st0;" cx="334.3971863" cy="138.8896027" r="8.41504"/>
	<circle style="&st0;" cx="342.8122253" cy="245.9476166" r="8.41504"/>
	<circle style="&st0;" cx="447.0652466" cy="250.7764893" r="8.41504"/>
	<circle style="&st0;" cx="390.497467" cy="152.3764038" r="8.41504"/>
	<circle style="&st0;" cx="549.4431763" cy="163.5964661" r="8.41504"/>
	<circle style="&st0;" cx="588.7184448" cy="257.1676636" r="8.41504"/>
	<circle style="&st0;" cx="455.4802856" cy="155.1814117" r="8.41504"/>
	<circle style="&st0;" cx="396.5167847" cy="59.8817253" r="8.41504"/>
	<circle style="&st0;" cx="482.1278992" cy="79.0493164" r="8.41504"/>
	<circle style="&st0;" cx="571.8883667" cy="87.4643555" r="8.41504"/>
	<circle style="&st0;" cx="317.5671082" cy="54.7392006" r="8.41504"/>
	<circle style="&st0;" cx="206.7690887" cy="242.3614502" r="8.41504"/>
	<circle style="&st0;" cx="283.9069519" cy="240.3375854" r="8.41504"/>
	<circle style="&st0;" cx="348.4222717" cy="327.1979675" r="8.41504"/>
	<circle style="&st0;" cx="451.7402649" cy="338.0455627" r="8.41504"/>
	<circle style="&st0;" cx="601.6459351" cy="348.5333252" r="8.41504"/>
	<circle style="&st0;" cx="260.5318604" cy="334.305542" r="8.41504"/>
	<circle style="&st0;" cx="198.3540497" cy="334.305542" r="8.41504"/>
	<g>
		<g>
			
				<rect x="520.4639282" y="180.3188324" transform="matrix(0.6536283 -0.7568157 0.7568157 0.6536283 47.8457069 466.6796875)" style="&st3;" width="26.6043377" height="1.5000402"/>
		</g>
		<g>
			<path style="&st3;" d="M522.1152344,194.5639648c0.7939453-2.1286621,1.5-5.0100098,1.4892578-7.1833496l1.8569336,3.3076172
				l3.5424805,1.3537598C526.8525391,192.3486328,524.1049805,193.4677734,522.1152344,194.5639648z"/>
		</g>
	</g>
	<g>
		<g>
			
				<rect x="570.9450684" y="238.8700562" transform="matrix(0.4297248 -0.9029599 0.9029599 0.4297248 101.7252731 657.8759766)" style="&st3;" width="1.5000232" height="19.0665264"/>
		</g>
		<g>
			<path style="&st3;" d="M559,242.3615723c2.2626953,0.2016602,5.2285156,0.1196289,7.3212891-0.4660645l-2.6977539,2.6662598
				l-0.3676758,3.7746582C562.390625,246.3427734,560.5839844,243.9897461,559,242.3615723z"/>
		</g>
	</g>
	<g>
		<g>
			
				<rect x="454.6481934" y="241.2241669" transform="matrix(0.8949473 -0.4461719 0.4461719 0.8949473 -59.3677902 231.8063812)" style="&st3;" width="15.8461781" height="1.5003939"/>
		</g>
		<g>
			<path style="&st3;" d="M473.7128906,236.420166c-1.5537109,1.6574707-3.3168945,4.0432129-4.1459961,6.0522461
				l-0.4365234-3.7678223l-2.7456055-2.6159668C468.487793,236.6359863,471.4545898,236.6638184,473.7128906,236.420166z"/>
		</g>
	</g>
	<g>
		<g>
			
				<rect x="467.9093018" y="161.2084656" transform="matrix(0.7917572 -0.6108359 0.6108359 0.7917572 -7.8809376 322.2320557)" style="&st3;" width="1.4997469" height="22.9322033"/>
		</g>
		<g>
			<path style="&st3;" d="M478.4277344,185.3366699c-1.9267578-1.2036133-4.6083984-2.472168-6.7397461-2.8967285
				l3.6118164-1.1572266l2.0356445-3.1999512C477.2050781,180.2521973,477.7519531,183.1679688,478.4277344,185.3366699z"/>
		</g>
	</g>
	<g>
		<path style="&st3;" d="M498.3870544,220.3716278h-6.2413025v-3.6877747h6.2413025v-6.5252686h3.8300171v6.5252686h6.2413025
			v3.6877747h-6.2413025v6.5252686h-3.8300171V220.3716278z"/>
	</g>
</g>
<g id="Layer_2">
	<path style="&st4;" d="M798,2v396H2V2H798 M800,0H0v400h800V0L800,0z"/>
</g>
</svg>
